<?xml version="1.0" encoding="utf-8"?>
<svg xmlns="http://www.w3.org/2000/svg">
<symbol id="btn-play" viewBox="0 0 24 24">
    <g fill="none" fill-rule="evenodd">
        <circle cx="12" cy="12" r="10" fill="#006AFF" fill-rule="nonzero"/>
        <path fill="#FFF" d="M10 9.574v4.852c0 .446.468.72.836.491l3.896-2.426a.585.585 0 0 0 0-.983l-3.896-2.425c-.368-.23-.836.045-.836.49"/>
    </g>

</symbol>
<symbol id="loader" viewBox="0 0 24 24">
  <path fill="#006AFF" fill-rule="evenodd" d="M12.05 17.88h.26a5.57 5.57 0 0 0 2.85-.58 6.66 6.66 0 0 0 1.31-.85c.46-.37.86-.8 1.21-1.28a6.97 6.97 0 0 0 1.26-3.69 7.84 7.84 0 0 0-.2-2.03A7.44 7.44 0 0 0 18 7.6a7.08 7.08 0 0 0-1.16-1.45 7.38 7.38 0 0 0-1.35-1.07 8.06 8.06 0 0 0-1.28-.66 6.88 6.88 0 0 0-1.05-.29 5.5 5.5 0 0 0-.8-.12h-.26 1a8.33 8.33 0 0 1 2.53.74c.54.27 1.05.6 1.51.98a7.63 7.63 0 0 1 1.41 1.48 8.2 8.2 0 0 1 1.06 1.98c.23.74.36 1.51.38 2.3a8.19 8.19 0 0 1-2.45 6.17 8.43 8.43 0 0 1-1.54 1.2 9.08 9.08 0 0 1-1.52.7 7.7 7.7 0 0 1-1.28.34 6.86 6.86 0 0 1-.78.1h-.26a1.06 1.06 0 0 1-1.15-.97 1.07 1.07 0 0 1 .95-1.17l.1.02z"/>

</symbol></svg>